/* XPM */
static char * \home\yonnji\_emacs_d\plugins\nyan_mode\img\rainbow_xpm[] = {
"8 34 7 1",
" 	c None",
".	c #FD4432",
"+	c #FE6C1F",
"@	c #FEFBAC",
"#	c #4AA339",
"$	c #0786D3",
"%	c #552579",
"        ",
"        ",
"        ",
"        ",
"        ",
"        ",
"........",
"........",
"........",
"++++++++",
"++++++++",
"++++++++",
"@@@@@@@@",
"@@@@@@@@",
"@@@@@@@@",
"########",
"########",
"########",
"$$$$$$$$",
"$$$$$$$$",
"$$$$$$$$",
"%%%%%%%%",
"%%%%%%%%",
"%%%%%%%%",
"        ",
"        ",
"        ",
"        ",
"        ",
"        ",
"        ",
"        ",
"        ",
"        "};
