/* XPM */
static char * \home\yonnji\_emacs_d\plugins\nyan_mode\img\nyan_frame_2_xpm[] = {
"53 34 20 1",
" 	c None",
".	c #6CAADD",
"+	c #649AC6",
"@	c #9DD9F7",
"#	c #91BEE6",
"$	c #0092CE",
"%	c #F37635",
"&	c #EF3E33",
"*	c #FFFFFF",
"=	c #FCFF9C",
"-	c #FD4432",
";	c #662D89",
">	c #FE6C1F",
",	c #79C140",
"'	c #000000",
")	c #FEFBAC",
"!	c #C20070",
"~	c #4AA339",
"{	c #0786D3",
"]	c #552579",
"                                                     ",
"                            ..      ++               ",
"                       ... .@@.    +#+  $$$$$$$$     ",
"                       .@@..@@.+#+$$$$$$%&&&&&&&$$   ",
"                       .@@@..@@.##$%%%%%%%%%%%%&&&$  ",
"                        .@@..@@.##+$$%%...%%****=%$  ",
"-------------$-----------.@@.@@.#$$$%..@@.$*===$$*&$ ",
"-----$$$$$$$-$$--------...@@@.@.$$*=.@@@@$*===$@$$$$ ",
"---$$$$$$$$$$$;$-------.@..@@.@.+#$$.@@@$*==$$@@@@$$ ",
">>$$,,,,,,,,$$;$>>>>>>>.@@.@@...$$,.@@@$$$$$@@@@@@@. ",
">$,,*****=,,,$$;$>>>>>>>.@@...@@.,$....@@@@...@@@@@. ",
"$$$$$%%%%=*=,,$;$>>>>>>>>.@.@.@@.$$$$$$@@@'''''..'@. ",
")))))$$$&%*=*,$$;$)))))))...@@@@.;;;;;$@@@@*!'**''@. ",
"))))))))$&%*=,,$$;$)))$$$.@@.@@@;;;;;;$@@@@*!''''@@. ",
"))))))))$&&%=*,,$$;$$$$;*..@..@@.$$$$$@.@@@@*!'''@@..",
"~~~~~~~~~$$&%==,,$$$;;,*%&...@@@.....@@.@@@@@@!!@@#@.",
"~~~~~~~~$$&&%%*=,,,,**=%&.@@.@@@.@@@@@@@@@@@@@@@@@.@.",
"~~~~~~~~~~$$&%%=***=%%%&$.**@..@@.@@@@@@@@@@@@@@@@.. ",
"{{{{{{{{{{{{$&%%%%%%&&&$.****@@@@@@@@@@@@.........   ",
"{{{{{{{{{{{{{$&&&&&&$$${.&**@@@@@@@@@@.@....         ",
"{{{{{{{{{{{{{{$$$$$${{{{.&=$@@@@@@@@@@..@@@.+++++++++",
"]]]]]]]]]]]]]]]]]]]]]]]..@&*@@@@@@@.@.@@@@@.########+",
"]]]]]]]]]]]]]]]]]]]]]].@.@&@@@@.@@@.@@@..@@.########+",
"]]]]]]]]]]]]]]]]]]]]..@@@@@@@@..........@@@.+++####+ ",
"                ....@@@@@@@@@.++      .@@@@.   ++++  ",
"               .@@@@@@@..@@@.+        .@@@@.         ",
"               .@@@@@..#....          .@@@@.         ",
"               .@@@@.###+              .@@.          ",
"               .@@..+##+               .@.           ",
"               ...  +++                 .            ",
"                                                     ",
"                                                     ",
"                                                     ",
"                                                     "};
